<svg width="190" height="39" viewBox="0 0 190 39" fill="none" xmlns="http://www.w3.org/2000/svg">
<g clip-path="url(#clip0_283_524)">
<path d="M161.987 27.8561L161.957 28.9293C161.957 29.6407 161.788 29.9702 160.457 29.9702L160.458 31.1819L169.203 31.173V29.9702L168.815 29.9553C167.686 29.9126 167.649 29.4604 167.624 28.5479L167.595 27.4742V23.7295C167.595 20.6543 164.273 19.8885 162.509 19.8642C160.903 19.8425 159 20.3108 158.151 21.8474V20.0978H150.741L150.731 21.3129H151.438C152.571 21.3129 152.635 22.3801 152.659 23.1494V27.984C152.635 28.879 152.747 29.9702 151.438 29.9702H150.726L150.722 31.1756H159.776L159.779 29.9702C158.754 29.9702 158.318 29.9702 158.296 28.9293L158.267 27.8561V23.915C158.709 22.6665 159.718 21.5785 160.728 21.5652C161.638 21.5533 161.931 22.0588 161.957 22.9154L161.987 23.8719V27.8561ZM147.397 27.7054V23.811C147.397 22.433 146.565 21.0993 145.458 20.6135C143.986 19.9665 142.232 19.9188 141.089 19.8927C139.063 19.8472 137.616 20.1442 136.257 20.731C134.91 21.3129 134.197 22.1265 134.234 23.0088C134.282 24.169 135.761 24.645 136.711 24.645C137.696 24.645 139.722 24.334 139.717 23.1093C139.713 22.3298 138.931 22.4065 138.931 22.0335C138.931 21.4719 139.78 21.1262 140.429 21.145C141.629 21.1795 141.73 22.0106 141.732 22.3848L141.736 23.3762C141.739 23.9144 141.126 24.1983 140.213 24.4865C138.795 24.9349 137.279 25.0925 135.859 25.5946C134.43 26.1005 133.536 27.2339 133.536 28.3033C133.536 29.2699 133.924 30.026 134.699 30.5711C135.473 31.1162 136.481 31.3896 137.721 31.3896C139.386 31.3896 141.341 30.9249 142.108 29.4971C142.57 30.9663 144.259 31.3896 145.508 31.3896C146.901 31.3896 148.082 31.1767 148.88 30.5362C149.576 29.9782 149.98 29.0947 149.98 27.7436H148.776C148.839 28.7572 148.41 28.9759 148.094 28.98C147.748 28.9843 147.397 28.7487 147.397 27.7054ZM140.447 29.2749C139.77 29.2749 139.161 28.7666 139.147 27.7846C139.135 26.9871 139.645 26.3443 140.235 25.9894C140.746 25.6816 141.354 25.4544 141.834 25.1603V25.087L141.818 28.002C141.636 28.6152 141.195 29.2749 140.447 29.2749ZM119.462 21.2945L119.483 15.3659H120.707C122.284 15.4201 124.106 16.2751 124.057 18.2202C124.016 19.8059 123.148 21.2826 121.757 21.2873L119.462 21.2945ZM108.802 15.3659L110.486 15.3676C112.059 15.369 112.314 17.1322 112.314 18.1368V27.1874C112.314 28.9345 111.758 29.9743 109.894 29.9743H108.802V31.173H123.036C123.967 31.173 125.06 31.1329 126.32 31.0864C127.579 31.04 128.645 30.8576 129.516 30.5396C131.374 29.8624 132.545 28.5041 132.527 26.4679C132.5 23.5539 130.282 22.4057 127.701 22.0941C126.993 22.0089 125.932 21.9668 124.518 21.9668V21.7796C125.701 21.7796 127.285 21.7386 128.621 21.3218C130.078 20.8666 131.241 19.7066 131.26 17.9164C131.287 15.4477 128.567 14.5084 126.494 14.2885C125.467 14.1798 124.043 14.1252 122.223 14.1252L108.802 14.1485V15.3659ZM121.555 29.9702L119.811 29.9743H119.462V22.5203L122.029 22.522C123.578 22.5229 125.017 23.9401 125.017 26.089C125.017 28.4725 123.877 29.9642 121.555 29.9702ZM57.2867 21.2945L57.3071 15.3659H58.5311C60.1084 15.4201 61.9303 16.2751 61.881 18.2202C61.8403 19.8059 60.9726 21.2826 59.5814 21.2873L57.2867 21.2945ZM46.6263 15.3659L48.3106 15.3676C49.8839 15.369 50.1383 17.1322 50.1383 18.1368V27.1874C50.1383 28.9345 49.5821 29.9743 47.7182 29.9743H46.6263V31.173H60.8609C61.791 31.173 62.8846 31.1329 64.1447 31.0864C65.4037 31.04 66.4694 30.8576 67.3409 30.5396C69.198 29.8624 70.3692 28.5041 70.351 26.4679C70.325 23.5539 68.1057 22.4057 65.5248 22.0941C64.8174 22.0089 63.7569 21.9668 62.3431 21.9668V21.7796C63.5254 21.7796 65.1096 21.7386 66.4447 21.3218C67.9027 20.8666 69.065 19.7066 69.0846 17.9164C69.1113 15.4477 66.3911 14.5084 64.3187 14.2885C63.2918 14.1798 61.8679 14.1252 60.0472 14.1252L46.6263 14.1485V15.3659ZM59.3791 29.9702L57.6358 29.9743H57.2867V22.5203L59.8531 22.522C61.4024 22.5229 62.8416 23.9401 62.8416 26.089C62.8416 28.4725 61.7013 29.9642 59.3791 29.9702ZM44.335 22.78C43.5235 21.8686 42.3806 21.0286 41.1125 20.5546C39.8431 20.0807 38.6178 19.6642 37.4369 19.3068C36.2544 18.9491 35.3296 18.6534 34.6615 18.4202C33.8112 18.1239 32.5559 17.887 32.9301 16.7251C33.1139 16.1549 34.095 15.3659 35.5525 15.3659C37.3783 15.3659 38.9012 15.8552 40.0801 16.6688C41.1855 17.4321 41.9891 18.4811 42.4562 19.6806H43.5931L43.6381 13.9756H42.4787C41.919 15.6196 40.552 15.0855 39.8346 14.8412C39.4651 14.7155 39.1187 14.5672 38.5623 14.4035C37.4819 14.0855 36.452 13.8916 35.3482 13.8916C33.3521 13.8916 31.5894 14.3652 30.0592 15.4226C28.5291 16.48 27.7637 17.8269 27.7637 19.3511C27.7637 21.2954 28.9367 22.8055 29.9432 23.3174C31.3867 24.0509 32.7712 24.6003 34.069 25.0205C35.3669 25.4399 36.598 25.8337 37.7597 26.1981C38.913 26.5608 40.2075 26.8793 40.0359 28.0599C39.8656 29.2277 38.1164 29.6181 36.9799 29.6066C35.6366 29.5935 34.1026 29.177 32.7164 28.4294C30.7828 27.3864 29.136 25.6995 28.6951 23.5645H27.4868V31.4359H28.6951C28.7196 30.3244 29.22 29.6612 30.2112 29.5935C31.2911 29.5196 31.9405 30.0145 32.7772 30.448C34.3931 31.2842 36.0018 31.4602 37.5673 31.4602C41.2786 31.4602 45.4087 29.7797 45.3726 25.9122C45.3602 24.6054 45.1606 23.7074 44.335 22.78ZM10.9474 21.2945L10.9677 15.3659H12.1913C13.7691 15.4201 15.591 16.2751 15.5412 18.2202C15.5012 19.8059 14.6333 21.2826 13.242 21.2873L10.9474 21.2945ZM0.286865 15.3659L1.97121 15.3676C3.54422 15.369 3.79898 17.1322 3.79898 18.1368V27.1874C3.79898 28.9345 3.24265 29.9743 1.37874 29.9743H0.286865V31.173H14.5216C15.4517 31.173 16.5455 31.1329 17.8052 31.0864C19.064 31.04 20.13 30.8576 21.0015 30.5396C22.8586 29.8624 24.0299 28.5041 24.0117 26.4679C23.9857 23.5539 21.7662 22.4057 19.1855 22.0941C18.478 22.0089 17.4175 21.9668 16.0032 21.9668V21.7796C17.186 21.7796 18.7701 21.7386 20.1058 21.3218C21.5633 20.8666 22.7253 19.7066 22.7448 17.9164C22.772 15.4477 20.0519 14.5084 17.9794 14.2885C16.9525 14.1798 15.5284 14.1252 13.7079 14.1252L0.286865 14.1485V15.3659ZM13.0394 29.9702L11.296 29.9743H10.9474V22.5203L13.5137 22.522C15.0631 22.5229 16.5023 23.9401 16.5023 26.089C16.5023 28.4725 15.3619 29.9642 13.0394 29.9702ZM189.459 31.173V29.9702H188.599C187.649 29.9702 187.152 29.567 186.375 28.5619L182.084 23.0102L182.571 22.485C183.174 21.8346 184.071 21.3051 186.059 21.3051H187.005V20.0913H179.628L179.631 21.3051H180.267C181.389 21.3051 181.101 22.3008 180.464 22.8102L177.419 25.246L177.421 23.8566L177.42 14.1485H169.458L169.465 15.3672L170.308 15.3662C171.058 15.3659 171.899 15.4899 171.899 17.167V27.8561C171.899 29.1527 172.068 29.9698 170.665 29.9698L170.252 29.9702V31.173L179.105 31.1742V29.9702L178.66 29.9629C177.776 29.9702 177.507 29.6121 177.507 28.2695V26.7433L178.138 26.2062L179.612 28.0594C180.222 28.746 180.876 29.9702 180.183 29.9702H179.97L179.967 31.1644L189.459 31.173Z" fill="#FEFEFE"/>
<path fill-rule="evenodd" clip-rule="evenodd" d="M102.161 28.6941L102.53 11.2666H78.1562L78.631 28.6726C79.2651 34.7365 84.6147 38.3369 90.4008 38.4688C96.2086 38.3505 101.522 34.7768 102.161 28.6941Z" fill="#E31E24"/>
<path fill-rule="evenodd" clip-rule="evenodd" d="M85.6977 0.782175L86.0841 1.65607L87.0223 1.75365C87.1427 1.76588 87.1538 1.74975 87.0591 1.83473L86.3492 2.47371L86.5466 3.39789C86.5721 3.51666 86.5909 3.52219 86.4806 3.45822L85.6555 2.97897L84.8393 3.4527C84.7347 3.51358 84.7356 3.53315 84.762 3.40831L84.9619 2.47371L84.2602 1.84207C84.1702 1.76089 84.1514 1.7676 84.2782 1.75446L85.2268 1.65607L85.6091 0.791688C85.6582 0.680707 85.6462 0.665487 85.6977 0.782175ZM81.3945 2.20636L81.7813 3.08034L82.719 3.17801C82.8395 3.19015 82.8506 3.17393 82.7557 3.25918L82.0459 3.89798L82.2438 4.82243C82.2687 4.94102 82.2875 4.94619 82.1778 4.88241L81.3524 4.40315L80.5366 4.87697C80.4314 4.93803 80.4323 4.95751 80.4591 4.83258L80.6586 3.89798L79.9571 3.26652C79.8669 3.18526 79.8487 3.19214 79.9755 3.1791L80.9238 3.08034L81.3059 2.21632C81.3553 2.10516 81.3429 2.09003 81.3945 2.20636ZM77.7819 4.32279L78.1682 5.1966L79.1065 5.29399C79.2269 5.30631 79.2377 5.29027 79.1431 5.37543L78.4333 6.01396L78.6308 6.93841C78.6562 7.05727 78.675 7.06262 78.5649 6.99848L77.7398 6.5194L76.9237 6.99331C76.8184 7.0541 76.8199 7.07367 76.8462 6.94883L77.0462 6.01396L76.3442 5.38241C76.2543 5.30151 76.2361 5.30839 76.3624 5.29526L77.3108 5.1966L77.6932 4.33221C77.7424 4.22132 77.7303 4.20619 77.7819 4.32279ZM95.0747 0.782175L95.4615 1.65607L96.3994 1.75365C96.5202 1.76588 96.5308 1.74975 96.436 1.83473L95.7268 2.47371L95.9241 3.39789C95.9492 3.51666 95.968 3.52219 95.8581 3.45822L95.0327 2.97897L94.2169 3.4527C94.1116 3.51358 94.1125 3.53315 94.1396 3.40831L94.339 2.47371L93.6373 1.84207C93.5472 1.76089 93.5289 1.7676 93.6554 1.75446L94.6041 1.65607L94.9862 0.791688C95.0356 0.680707 95.0231 0.665487 95.0747 0.782175ZM99.378 2.20636L99.7643 3.08034L100.703 3.17801C100.823 3.19015 100.834 3.17393 100.739 3.25918L100.03 3.89798L100.227 4.82243C100.252 4.94102 100.271 4.94619 100.161 4.88241L99.3359 4.40315L98.5198 4.87697C98.4151 4.93803 98.4161 4.95751 98.4425 4.83258L98.6418 3.89798L97.9405 3.26652C97.8501 3.18526 97.8322 3.19214 97.9584 3.1791L98.9072 3.08034L99.2895 2.21632C99.3383 2.10516 99.3263 2.09003 99.378 2.20636ZM103.031 4.36347L103.418 5.23737L104.356 5.33467C104.477 5.34717 104.487 5.33095 104.393 5.41602L103.683 6.05455L103.88 6.97909C103.906 7.09786 103.924 7.10321 103.814 7.03915L102.989 6.5599L102.173 7.03381C102.068 7.09478 102.069 7.11426 102.096 6.98951L102.296 6.05455L101.594 5.42327C101.504 5.34219 101.485 5.3488 101.612 5.33584L102.56 5.23737L102.943 4.37316C102.992 4.26191 102.98 4.2466 103.031 4.36347ZM90.4065 0.25318L90.7931 1.1269L91.731 1.22429C91.8515 1.23697 91.8626 1.2203 91.7676 1.30573L91.0578 1.94444L91.2553 2.86871C91.2809 2.98775 91.2996 2.99292 91.1898 2.92923L90.3643 2.4497L89.5485 2.92361C89.4435 2.98449 89.4444 3.00424 89.4712 2.87922L89.6708 1.94444L88.969 1.31307C88.8788 1.2319 88.8607 1.23887 88.9873 1.22547L89.9359 1.1269L90.3181 0.262965C90.344 0.203986 90.3528 0.171915 90.3631 0.172368C90.3721 0.172821 90.3824 0.19846 90.4065 0.25318Z" fill="#FFD903"/>
<path fill-rule="evenodd" clip-rule="evenodd" d="M90.3435 11.2671H102.635L102.157 28.6726C101.579 34.7569 96.2083 38.3568 90.3435 38.469V11.2671Z" fill="#FEFEFE"/>
<path fill-rule="evenodd" clip-rule="evenodd" d="M90.3426 38.8665C90.8188 38.8553 91.2335 38.844 91.7064 38.7838C97.1894 38.0841 101.853 34.4309 102.449 28.6987C102.622 22.3625 102.79 16.0484 102.937 9.63172L97.604 5.9814L95.185 7.63615L90.3426 4.3252V4.32529L85.5002 7.63624L83.0812 5.9814L77.7478 9.63172C77.8957 16.0484 78.0632 22.3625 78.2365 28.6987C78.8324 34.4309 83.4958 38.0841 88.9787 38.7838C89.4517 38.8439 89.8664 38.8553 90.3426 38.8665ZM90.3426 4.82375V4.82457L95.185 8.11713L97.604 6.46228L102.536 9.83828L102.512 10.8918L90.3426 10.8927V10.892L78.1482 10.8918L78.1238 9.82542L83.0812 6.43239L85.5002 8.08723L90.3083 4.80038L90.3426 4.82375ZM78.1829 11.2911H90.3426V38.4689C90.0056 38.4672 89.3353 38.4287 89.0288 38.3897C83.7317 37.7138 79.2078 34.2127 78.6312 28.6653C78.4737 22.8804 78.3199 17.0891 78.1829 11.2911Z" fill="#22201E"/>
<path fill-rule="evenodd" clip-rule="evenodd" d="M90.3435 38.4688H90.3426C90.0056 38.4672 89.3352 38.4286 89.0287 38.3896C83.7316 37.7138 79.2078 34.2126 78.6311 28.6652C78.4736 22.8803 78.3199 17.089 78.1829 11.291H90.3435V38.4688Z" fill="#E31E24"/>
<path fill-rule="evenodd" clip-rule="evenodd" d="M90.3082 4.80029L95.185 8.11704L97.6039 6.4622L102.536 9.8382L102.512 10.8921L78.1482 10.8918L78.1238 9.82534L83.0811 6.4323L85.5001 8.08715L90.3082 4.80029Z" fill="#FEFEFE"/>
<path fill-rule="evenodd" clip-rule="evenodd" d="M90.3425 38.4688V11.291H102.502C102.365 17.089 102.211 22.8803 102.054 28.6652C101.477 34.2126 96.9534 37.7138 91.6563 38.3896C91.3498 38.4286 90.6794 38.4672 90.3425 38.4688Z" fill="#FEFEFE"/>
<path fill-rule="evenodd" clip-rule="evenodd" d="M86.2318 21.0614H86.5326V20.4432C86.5326 20.3905 86.5718 20.3478 86.6254 20.3478H87.5679C87.6202 20.3478 87.6627 20.3874 87.6627 20.4407V21.0614H88.5453V20.4432C88.5453 20.3905 88.5847 20.3478 88.638 20.3478H89.5805C89.6329 20.3478 89.6759 20.3874 89.6759 20.4407V21.0614H90.3384C90.3911 21.0614 90.4337 21.1011 90.4337 21.1546V24.3972C90.4337 24.484 90.4328 24.5209 90.3516 24.5209C89.7861 24.5209 89.3155 24.9783 89.3155 25.5598C89.3155 26.5366 89.3129 27.5143 89.3129 28.4912C89.3129 28.5425 89.2717 28.5843 89.2202 28.5843H88.1279C88.0768 28.5843 88.0352 28.5425 88.0352 28.4912V28.3217H87.1142L87.1361 28.4838C87.1427 28.5401 87.1092 28.5903 87.0504 28.5939C86.0036 28.6558 84.9603 28.7798 83.9105 28.7798C82.8612 28.7798 81.8178 28.6558 80.771 28.5939C80.7173 28.588 80.6774 28.5442 80.6852 28.4886L80.9745 26.3364C80.9787 26.2862 81.0221 26.2488 81.0722 26.2521L81.2182 26.2619L81.7654 18.597L81.2552 18.2255C81.2271 18.2068 81.2124 18.1795 81.2124 18.1449V16.8802C81.2124 16.8289 81.254 16.7872 81.305 16.7872H81.9455L83.8016 14.3459V13.9977V13.9918V13.9893V12.9954C83.8016 12.9438 83.8428 12.9023 83.8944 12.9023H83.8965H84.7288H85.5633C85.6147 12.9023 85.656 12.9438 85.656 12.9954C85.656 13.0222 85.645 13.0462 85.6266 13.0632L85.2187 13.4936L85.6304 13.9278C85.6657 13.9648 85.6641 14.0237 85.6271 14.0592C85.6092 14.076 85.5861 14.0845 85.5633 14.0845V14.0847H83.9871V14.3613L85.9122 16.7872H86.5138C86.5666 16.7872 86.6092 16.8271 86.6092 16.8802V18.1472C86.6092 18.1805 86.5919 18.2089 86.5661 18.2255L86.0559 18.597L86.2318 21.0614Z" fill="#FEFEFE"/>
<path fill-rule="evenodd" clip-rule="evenodd" d="M84.3343 21.6902L84.4751 19.9222C84.4751 19.0721 83.3453 19.0762 83.3453 19.9222L83.4866 21.6902H84.3343Z" fill="#E52D32"/>
<path fill-rule="evenodd" clip-rule="evenodd" d="M96.7872 12.9023H96.7895H97.622H98.4565C98.5073 12.9023 98.5492 12.944 98.5492 12.9955C98.5492 13.0221 98.5376 13.0464 98.5195 13.0635L98.1117 13.4939L98.5238 13.928C98.5587 13.9649 98.5572 14.0238 98.5203 14.0593C98.5023 14.0765 98.4794 14.0846 98.4565 14.0846V14.085H96.8804V14.3465L98.7366 16.7875H99.3764C99.4278 16.7875 99.4692 16.8291 99.4692 16.8803V18.1451C99.4692 18.1797 99.4542 18.2069 99.4266 18.2257L98.9161 18.5975L99.4637 26.2621L99.6091 26.2522C99.6594 26.2492 99.7031 26.2865 99.7069 26.3367L99.9969 28.489C100.004 28.5446 99.9645 28.5879 99.9104 28.5939C98.8641 28.6559 97.8207 28.7802 96.771 28.7802C95.7213 28.7802 94.6778 28.6559 93.6315 28.5939C93.5723 28.5906 93.5391 28.5403 93.5458 28.4838L93.5675 28.3218H92.6462V28.4913C92.6462 28.5427 92.6046 28.5844 92.5536 28.5844H91.4614C91.4102 28.5844 91.3685 28.5427 91.3685 28.4913C91.3685 27.5144 91.3664 26.537 91.3664 25.5602C91.3664 24.9787 90.8959 24.5212 90.33 24.5212C90.2486 24.5212 90.2482 24.484 90.2482 24.3973V21.1546C90.2482 21.1011 90.2907 21.0617 90.3431 21.0617H91.0061V20.4411C91.0061 20.3878 91.0487 20.3479 91.1014 20.3479H92.0439C92.0969 20.3479 92.1366 20.3906 92.1366 20.4434V21.0617H93.0186V20.4411C93.0186 20.3878 93.0613 20.3479 93.1139 20.3479H94.0565C94.1097 20.3479 94.1493 20.3906 94.1493 20.4434V21.0617H94.4496L94.6259 18.5975L94.1153 18.2257C94.0895 18.2091 94.0723 18.1806 94.0723 18.1475V16.8803C94.0723 16.8271 94.1149 16.7875 94.1679 16.7875H94.7692L96.6947 14.3612V13.9981L96.6942 13.9919V13.9894V12.9955C96.6942 12.944 96.736 12.9023 96.7872 12.9023Z" fill="#E31E24"/>
<path fill-rule="evenodd" clip-rule="evenodd" d="M96.239 19.9552L96.372 21.6192H97.1698L97.3025 19.9552C97.3025 19.155 96.239 19.1587 96.239 19.9552Z" fill="#FEFEFE"/>
<path fill-rule="evenodd" clip-rule="evenodd" d="M80.9958 27.5669C81.9659 27.6576 82.9349 27.7942 83.9104 27.7942C84.8868 27.7942 85.8555 27.6576 86.8257 27.5669L86.9397 28.4144C85.9305 28.478 84.9227 28.5937 83.9104 28.5937C82.8986 28.5937 81.8906 28.478 80.8812 28.4144L80.9958 27.5669ZM81.8915 18.4592H85.9297L86.2309 18.2402H81.5907L81.8915 18.4592ZM81.948 18.6454L81.403 26.2756C82.2366 26.3432 83.0736 26.4352 83.9104 26.4373C84.7467 26.4354 85.5846 26.3429 86.4186 26.2756L85.8736 18.6454H81.948ZM86.4236 16.9733H85.9254V17.5086C85.9254 17.5599 85.8836 17.6014 85.8326 17.6014H85.1483C85.0974 17.6014 85.0557 17.5599 85.0557 17.5086V16.9733H84.3501V17.5061C84.3501 17.5589 84.3106 17.6014 84.2574 17.6014H83.5667C83.5139 17.6014 83.4714 17.5618 83.4714 17.5086V16.9733H82.766V17.5061C82.766 17.5589 82.7268 17.6014 82.6732 17.6014H81.9917C81.9391 17.6014 81.8967 17.5618 81.8967 17.5086V16.9733H81.3978V18.0542H86.4236V16.9733ZM82.8451 27.5625C82.2361 27.5152 81.628 27.4401 81.0204 27.3826L81.1469 26.4429C81.7148 26.4825 82.282 26.5418 82.8502 26.5816C82.8471 26.7754 82.8459 27.3458 82.8451 27.5625ZM84.7901 27.5761C84.1953 27.6164 83.6256 27.6164 83.0307 27.5761C83.0312 27.3725 83.0323 26.79 83.0347 26.5938C83.6268 26.6301 84.1943 26.6301 84.7859 26.5938C84.7883 26.7959 84.7897 27.3782 84.7901 27.5761ZM85.7407 16.8686L83.8897 14.5362L82.082 16.9136V17.4156H82.5804V16.8801C82.5804 16.8288 82.6221 16.7872 82.6732 16.7872H83.5642C83.6152 16.7872 83.6569 16.8288 83.6569 16.8801V17.4156H84.1646V16.8826C84.1646 16.8298 84.2041 16.7872 84.2574 16.7872H85.1459C85.1987 16.7872 85.2412 16.8267 85.2412 16.8801V17.4156H85.7398V16.8826C85.7398 16.8779 85.7398 16.8732 85.7407 16.8686ZM83.9871 13.0881V13.8988H85.3476L85.0238 13.5575C84.99 13.522 84.9897 13.4654 85.0238 13.4294L85.3476 13.0881H84.7289H83.9871ZM88.4171 26.6223H89.1274V26.4101H88.4171V26.6223ZM88.3434 27.3796H89.1273V26.8084H88.3434V27.3796ZM88.5502 24.5669C88.4026 24.8355 88.3132 25.1412 88.2988 25.4669H89.1332C89.1458 25.3003 89.1912 25.1436 89.263 25.0025L88.5502 24.5669ZM89.3597 24.8444C89.4251 24.7541 89.5018 24.673 89.5886 24.6035C89.1073 23.8962 89.1222 23.9182 88.9171 23.617C88.6925 23.7841 88.4981 23.989 88.3432 24.2228C88.6708 24.4231 88.7503 24.4716 89.3597 24.8444ZM89.7482 23.5899C89.5787 23.6418 89.4183 23.7155 89.2707 23.8073L89.7412 24.4987C89.8091 24.4595 89.8808 24.4266 89.9562 24.401C89.8869 24.1309 89.8175 23.8601 89.7482 23.5899ZM90.248 22.5818C90.0617 22.5883 89.8775 22.6119 89.6953 22.6535C89.8911 23.4101 89.9289 23.5565 90.1353 24.3544C90.1725 24.3473 90.2098 24.3427 90.248 24.3394V22.5818ZM88.2209 28.3983H89.1273V27.5659H88.2209V28.3983ZM86.2319 21.0612H86.5325V20.4431C86.5325 20.3904 86.5718 20.3474 86.6252 20.3474H87.5678C87.62 20.3474 87.6627 20.3873 87.6627 20.4407V21.0612H88.5452V20.4431C88.5452 20.3904 88.5847 20.3474 88.638 20.3474H89.5806C89.6329 20.3474 89.6759 20.3873 89.6759 20.4407V21.0612H90.3385C90.3911 21.0612 90.4337 21.1006 90.4337 21.1544V24.3971C90.4337 24.4838 90.4327 24.5209 90.3515 24.5209C89.786 24.5209 89.3152 24.9784 89.3152 25.5598C89.3152 26.5366 89.3128 27.5142 89.3128 28.4912C89.3128 28.5425 89.2716 28.5841 89.22 28.5841H88.1277C88.0767 28.5841 88.0351 28.5425 88.0351 28.4912V28.3216H87.1141L87.1359 28.4836C87.1428 28.5401 87.1091 28.5904 87.0506 28.5937C86.0036 28.6555 84.9602 28.7797 83.9104 28.7797C82.8612 28.7797 81.8179 28.6555 80.7711 28.5937C80.7171 28.5876 80.6775 28.5443 80.6852 28.4886L80.9744 26.3363C80.9787 26.2861 81.0222 26.2489 81.0723 26.2519L81.2184 26.2618L81.7655 18.5973L81.2553 18.2254C81.2273 18.2068 81.2123 18.1793 81.2123 18.1447V16.8801C81.2123 16.8288 81.2539 16.7872 81.3052 16.7872H81.9456L83.8015 14.346V13.9978V13.9915V13.9892V12.9951C83.8015 12.9437 83.8429 12.9023 83.8943 12.9023H83.8966H84.7289H85.5633C85.6148 12.9023 85.6561 12.9437 85.6561 12.9951C85.6561 13.0219 85.645 13.0462 85.6267 13.0632L85.2187 13.4934L85.6304 13.9277C85.6658 13.9647 85.6642 14.0236 85.6271 14.0589C85.6093 14.0762 85.5863 14.0844 85.5633 14.0844V14.0846H83.9871V14.3612L85.9122 16.7872H86.5139C86.5665 16.7872 86.6092 16.8267 86.6092 16.8801V18.1471C86.6092 18.1804 86.5918 18.2087 86.5664 18.2254L86.0559 18.5973L86.2319 21.0612ZM86.271 21.6082H90.248V21.2472H89.583C89.5315 21.2472 89.4902 21.2056 89.4902 21.1544V20.5337H88.7307V21.1544C88.7307 21.2056 88.689 21.2472 88.638 21.2472H87.5699C87.5189 21.2472 87.4771 21.2056 87.4771 21.1544V20.5337H86.7181V21.1544C86.7181 21.2056 86.6764 21.2472 86.6252 21.2472H86.2452L86.271 21.6082ZM86.2972 21.9777H90.248V21.7944H86.284L86.2972 21.9777ZM87.0891 28.1354H88.0351V27.4728C88.0351 27.4212 88.0767 27.3796 88.1277 27.3796H88.1581V26.7178C88.1581 26.6723 88.1866 26.6337 88.2316 26.6245V26.4101C88.1661 26.4101 88.0842 26.4088 88.0842 26.3172V25.5622C88.0842 25.5352 88.0945 25.5105 88.1121 25.4934C88.1226 25.123 88.2232 24.7751 88.3923 24.4702L88.1657 24.3317C88.1218 24.3049 88.1082 24.2472 88.135 24.204C88.3222 23.8933 88.5895 23.6145 88.8881 23.4099C88.9307 23.381 88.9882 23.3918 89.0171 23.434L89.1664 23.6539C89.3316 23.5502 89.5111 23.4677 89.7017 23.4099C89.6329 23.1423 89.5638 22.8751 89.4929 22.6088C89.48 22.5592 89.5099 22.5086 89.5592 22.4956C89.7831 22.4376 90.0162 22.4034 90.248 22.3956V22.1635H86.3102L86.6031 26.2618L86.7491 26.2519C86.7491 26.2519 86.8418 26.296 86.8467 26.3321L87.0891 28.1354ZM89.1274 25.6528H88.2699V26.224H89.1274V25.6528ZM86.8009 27.3826C86.193 27.4401 85.5849 27.5152 84.9756 27.5626C84.9752 27.3511 84.9736 26.7813 84.9711 26.5816C85.539 26.5418 86.1066 26.4825 86.6746 26.4429L86.8009 27.3826Z" fill="#22201E"/>
<path fill-rule="evenodd" clip-rule="evenodd" d="M99.6861 27.5669C98.716 27.6576 97.7469 27.7942 96.771 27.7942C95.7948 27.7942 94.8259 27.6576 93.856 27.5669L93.7415 28.4144C94.751 28.478 95.7587 28.5937 96.771 28.5937C97.7832 28.5937 98.7909 28.478 99.8001 28.4144L99.6861 27.5669ZM98.7899 18.4592H94.7518L94.451 18.2402H99.0907L98.7899 18.4592ZM98.7339 18.6454L99.2788 26.2756C98.4449 26.3432 97.6078 26.4352 96.771 26.4373C95.9348 26.4354 95.097 26.3429 94.263 26.2756L94.8079 18.6454H98.7339ZM94.2579 16.9733H94.7565V17.5086C94.7565 17.5599 94.7978 17.6014 94.8492 17.6014H95.5328C95.5846 17.6014 95.6258 17.5599 95.6258 17.5086V16.9733H96.3313V17.5061C96.3313 17.5589 96.3708 17.6014 96.4241 17.6014H97.115C97.1675 17.6014 97.21 17.5618 97.21 17.5086V16.9733H97.9153V17.5061C97.9153 17.5589 97.955 17.6014 98.0082 17.6014H98.6899C98.7428 17.6014 98.7854 17.5618 98.7854 17.5086V16.9733H99.2837V18.0542H94.2579V16.9733ZM97.8365 27.5625C98.4458 27.5152 99.0533 27.4401 99.6611 27.3826L99.5352 26.4429C98.9668 26.4825 98.3998 26.5418 97.8316 26.5816C97.8343 26.7754 97.836 27.3458 97.8365 27.5625ZM95.8913 27.5761C96.4863 27.6164 97.056 27.6164 97.6507 27.5761C97.6502 27.3725 97.6491 26.79 97.6465 26.5938C97.0551 26.6301 96.4875 26.6301 95.8958 26.5938C95.8933 26.7959 95.8917 27.3782 95.8913 27.5761ZM94.9411 16.8686L96.7922 14.5362L98.5998 16.9136V17.4156H98.101V16.8801C98.101 16.8288 98.0595 16.7872 98.0082 16.7872H97.1171C97.0662 16.7872 97.0248 16.8288 97.0248 16.8801V17.4156H96.5167V16.8826C96.5167 16.8298 96.4773 16.7872 96.4241 16.7872H95.5356C95.4832 16.7872 95.4402 16.8267 95.4402 16.8801V17.4156H94.942V16.8826C94.942 16.8779 94.9414 16.8732 94.9411 16.8686ZM92.2645 26.6223H91.554V26.4101H92.2645V26.6223ZM92.3381 27.3796H91.5541V26.8084H92.3381V27.3796ZM92.131 24.5669C92.2787 24.8355 92.3686 25.1412 92.383 25.4669H91.5485C91.5358 25.3003 91.4903 25.1436 91.4185 25.0025L92.131 24.5669ZM91.3219 24.8444C91.2567 24.7541 91.1797 24.673 91.0933 24.6035C91.5745 23.8962 91.5593 23.9182 91.7643 23.617C91.9891 23.7841 92.1839 23.989 92.3386 24.2228C92.0106 24.4231 91.9312 24.4716 91.3219 24.8444ZM90.9333 23.5899C91.1026 23.6418 91.2631 23.7155 91.4108 23.8073L90.9401 24.4987C90.8724 24.4595 90.8003 24.4266 90.7253 24.401C90.7949 24.1309 90.864 23.8601 90.9333 23.5899ZM90.4337 22.5818C90.6197 22.5883 90.804 22.6119 90.9861 22.6535C90.7903 23.4101 90.7524 23.5565 90.5466 24.3544C90.5091 24.3473 90.4718 24.3427 90.4337 24.3394V22.5818ZM92.461 28.3983H91.554V27.5659H92.461V28.3983ZM94.4105 21.6082H90.4337V21.2472H91.0988C91.15 21.2472 91.1918 21.2056 91.1918 21.1544V20.5337H91.951V21.1544C91.951 21.2056 91.9923 21.2472 92.044 21.2472H93.1117C93.1625 21.2472 93.2041 21.2056 93.2041 21.1544V20.5337H93.9639V21.1544C93.9639 21.2056 94.0052 21.2472 94.0565 21.2472H94.4366L94.4105 21.6082ZM94.3843 21.9777H90.4337V21.7944H94.3973L94.3843 21.9777ZM93.5926 28.1354H92.6463V27.4728C92.6463 27.4212 92.6048 27.3796 92.5536 27.3796H92.5235V26.7178C92.5235 26.6723 92.495 26.6337 92.4502 26.6245V26.4101C92.5153 26.4101 92.5976 26.4088 92.5976 26.3172V25.5622C92.5976 25.5352 92.5869 25.5105 92.5695 25.4934C92.5587 25.123 92.4582 24.7751 92.2895 24.4702L92.5161 24.3317C92.5596 24.3049 92.5737 24.2472 92.5469 24.204C92.3591 23.8933 92.0925 23.6145 91.7934 23.4099C91.7511 23.381 91.6933 23.3918 91.6647 23.434L91.5154 23.6539C91.3498 23.5502 91.1702 23.4677 90.9796 23.4099C91.0486 23.1423 91.118 22.8751 91.1891 22.6088C91.2018 22.5592 91.172 22.5086 91.1227 22.4956C90.8984 22.4376 90.6657 22.4034 90.4337 22.3956V22.1635H94.3711L94.0783 26.2618L93.9329 26.2519C93.9329 26.2519 93.84 26.296 93.8355 26.3321L93.5926 28.1354ZM91.554 25.6528H92.4116V26.224H91.554V25.6528ZM96.8801 13.0881V13.8988H98.2401L97.9167 13.5575C97.8828 13.522 97.8828 13.4654 97.9167 13.4294L98.2401 13.0881H97.622H96.8801ZM96.7872 12.9023H96.7895H97.622H98.4565C98.5073 12.9023 98.5492 12.9437 98.5492 12.9951C98.5492 13.0219 98.5377 13.0462 98.5195 13.0632L98.1117 13.4934L98.5237 13.9277C98.5585 13.9647 98.5572 14.0236 98.5203 14.0589C98.5023 14.0762 98.4794 14.0844 98.4565 14.0844V14.0846H96.8801V14.3462L98.7364 16.7872H99.3764C99.4278 16.7872 99.4691 16.8288 99.4691 16.8801V18.1447C99.4691 18.1793 99.4542 18.2068 99.4265 18.2254L98.9161 18.5973L99.4635 26.2618L99.6091 26.2519C99.6594 26.2489 99.7031 26.2861 99.7069 26.3363L99.9967 28.4886C100.004 28.5443 99.9645 28.5876 99.9104 28.5937C98.8641 28.6555 97.8205 28.7797 96.771 28.7797C95.7212 28.7797 94.678 28.6555 93.6316 28.5937C93.5723 28.5904 93.5391 28.5401 93.546 28.4836L93.5677 28.3216H92.6463V28.4912C92.6463 28.5425 92.6048 28.5841 92.5536 28.5841H91.4614C91.4104 28.5841 91.3686 28.5425 91.3686 28.4912C91.3686 27.5142 91.3665 26.5366 91.3665 25.5598C91.3665 24.9784 90.8959 24.5209 90.3298 24.5209C90.2486 24.5209 90.2482 24.4838 90.2482 24.3971V21.1544C90.2482 21.1006 90.2907 21.0612 90.3431 21.0612H91.006V20.4407C91.006 20.3873 91.0486 20.3474 91.1014 20.3474H92.044C92.0971 20.3474 92.1367 20.3904 92.1367 20.4431V21.0612H93.0188V20.4407C93.0188 20.3873 93.0613 20.3474 93.1142 20.3474H94.0565C94.1098 20.3474 94.1493 20.3904 94.1493 20.4431V21.0612H94.4496L94.6261 18.5973L94.1155 18.2254C94.0898 18.2087 94.0723 18.1804 94.0723 18.1471V16.8801C94.0723 16.8267 94.1149 16.7872 94.1678 16.7872H94.7692L96.6947 14.361V13.9978L96.6942 13.9915V13.9892V12.9951C96.6942 12.9437 96.736 12.9023 96.7872 12.9023ZM93.8805 27.3826C94.4886 27.4401 95.0966 27.5152 95.7057 27.5626C95.7062 27.3511 95.7079 26.7813 95.7104 26.5816C95.1424 26.5418 94.5753 26.4825 94.0068 26.4429L93.8805 27.3826Z" fill="#22201E"/>
<path d="M84.6414 19.9554L84.5088 21.7168C84.5088 21.7736 84.4658 21.8194 84.4087 21.8194C84.1232 21.8194 83.6964 21.812 83.4117 21.8216C83.3568 21.8216 83.3122 21.7767 83.3122 21.7214L83.1794 19.9554C83.1794 18.898 84.6414 18.8947 84.6414 19.9554ZM83.3784 19.9554L83.5113 21.6194H84.3092L84.4419 19.9554C84.4419 19.1553 83.3784 19.1592 83.3784 19.9554Z" fill="#22201E"/>
<path d="M97.5019 19.9554L97.369 21.7168C97.369 21.7736 97.326 21.8194 97.2688 21.8194C96.9834 21.8194 96.5567 21.812 96.272 21.8216C96.217 21.8216 96.1725 21.7767 96.1725 21.7214L96.0397 19.9554C96.0397 18.898 97.5019 18.8947 97.5019 19.9554ZM96.2389 19.9554L96.3717 21.6194H97.1697L97.3023 19.9554C97.3023 19.1553 96.2389 19.1592 96.2389 19.9554Z" fill="#22201E"/>
<path fill-rule="evenodd" clip-rule="evenodd" d="M89.7316 33.3432C89.2319 33.3422 88.6661 33.2206 88.6661 32.5949C88.6661 32.3833 88.7524 32.1747 88.8588 31.9953C88.9373 31.863 89.0696 31.6376 89.0679 31.4809C89.0635 31.1195 88.8204 30.8357 88.4498 30.8387C88.0814 30.8415 87.8197 31.1327 87.8031 31.4928C87.795 31.6617 87.9095 31.8524 87.9921 31.9932C88.1989 32.347 88.3592 32.663 88.0301 33.0127C87.7005 33.3624 87.3827 33.2468 87.0057 33.0715C86.8311 32.9902 86.5418 32.8491 86.3798 33.0233C86.2248 33.1889 86.2206 33.5614 86.3802 33.7253C86.5427 33.8924 86.8347 33.7515 87.0057 33.6719C87.3827 33.4968 87.7005 33.3811 88.0301 33.7306C88.3592 34.0803 88.1989 34.3962 87.9921 34.7501C87.9095 34.8907 87.795 35.0817 87.8031 35.2506C87.8529 36.3044 89.6291 36.0457 88.8588 34.7484C88.6163 34.3404 88.544 33.8163 89.0129 33.536C89.2405 33.4001 89.4784 33.4007 89.7316 33.4001V33.3432ZM89.7482 32.5062C89.7937 32.3794 89.9265 32.3206 90.0524 32.3303C90.1793 32.1225 90.5187 32.1225 90.6451 32.3305C90.7516 32.3219 90.8634 32.3628 90.9225 32.4522V32.452H95.1545H95.3117V33.3429H90.966V33.4005H95.3117V34.2915H94.6007V34.3367H95.0319V35.0834H94.6007V35.201H95.0319V36.3802H94.2872V35.9477H94.1693V36.3802H93.4248V35.201H93.8559V35.0834H93.4248V34.6513H93.3072V35.0834H92.8757V35.201H93.3072V36.3802H92.5621V35.9477H92.4447V36.3802H91.7001V35.201H92.131V35.0834H91.7001V34.3367H92.131V34.2915H90.9225V34.2909C90.8634 34.3805 90.7516 34.4214 90.6451 34.413C90.5187 34.6212 90.1788 34.6212 90.0524 34.4129C89.9265 34.4231 89.7937 34.3641 89.7482 34.2375V34.2911L89.6205 34.2915C89.6208 34.2925 89.6217 34.2941 89.6226 34.295C90.0036 34.9382 90.1468 35.7359 89.5732 36.3159C89.311 36.5814 88.9477 36.7362 88.5793 36.7722C87.6444 36.8633 86.9614 36.2384 86.9166 35.2923C86.9049 35.0343 86.9663 34.8167 87.0648 34.6044C86.6002 34.7549 86.1303 34.7426 85.7445 34.3458C85.2551 33.8422 85.2533 32.9287 85.7304 32.4166C86.1139 32.0056 86.5935 31.9886 87.0653 32.1398C86.9663 31.9274 86.9049 31.7093 86.9166 31.4512C86.9562 30.6176 87.6024 29.9566 88.4426 29.9498C89.303 29.9427 89.9444 30.6182 89.9541 31.4702C89.9583 31.826 89.7998 32.15 89.6226 32.4484C89.6217 32.4498 89.6208 32.4509 89.6205 32.452H89.7482V32.5062Z" fill="#22201E"/>
<path d="M90.1605 32.6036C90.1584 32.4441 89.8884 32.4455 89.8884 32.6051V34.1383C89.8884 34.2981 90.1584 34.2992 90.1605 34.1399V34.227C90.1605 34.476 90.5366 34.4763 90.5366 34.227V34.1399C90.5392 34.2992 90.8091 34.2976 90.8091 34.1383V32.6051C90.8091 32.4455 90.5392 32.4441 90.5366 32.6036V32.5162C90.5366 32.2669 90.1605 32.2674 90.1605 32.5162V32.6036ZM95.1546 33.1858H90.9587V32.6092H95.1546V33.1858ZM94.8753 36.2228H94.4437V35.7907H94.0126V36.2228H93.5816V35.3583H94.0126V34.9262H93.5816V34.4937H93.1502V34.9262H92.7191V35.3583H93.1502V36.2228H92.7191V35.7907H92.2879V36.2228H91.8565V35.3583H92.2879V34.9262H91.8565V34.4937H92.2879V34.1342H90.9587V33.5575H95.1546V34.1342H94.4437V34.4937H94.8753V34.9262H94.4437V35.3583H94.8753V36.2228ZM89.712 34.1342C89.4711 34.1345 89.3651 34.1686 89.4878 34.3751C90.8796 36.7255 87.1805 37.5558 87.0733 35.2848C87.0554 34.9047 87.2235 34.6176 87.3622 34.3805C87.4214 34.2795 87.5281 34.2647 87.498 34.2328C87.4859 34.2201 87.4209 34.2864 87.312 34.337C86.8249 34.5637 86.2841 34.6756 85.8568 34.236C85.4256 33.7929 85.4248 32.9743 85.8449 32.5241C86.2648 32.0736 86.813 32.1741 87.312 32.4063C87.4209 32.4572 87.4859 32.5233 87.498 32.5107C87.5281 32.4784 87.4214 32.4638 87.3622 32.363C87.2235 32.1258 87.0554 31.8385 87.0733 31.4586C87.1087 30.7085 87.6865 30.1135 88.444 30.107C89.2167 30.1014 89.7886 30.7053 89.7975 31.4719C89.8013 31.7943 89.6481 32.0971 89.4878 32.3682C89.3657 32.574 89.4707 32.6092 89.712 32.6092V33.1858C89.3331 33.1853 88.8226 33.0288 88.8226 32.5948C88.8226 32.4418 88.8797 32.2676 88.9932 32.0755C89.0911 31.9109 89.2268 31.6748 89.2241 31.4789C89.2192 31.0296 88.9048 30.6776 88.4485 30.6814C87.9968 30.6848 87.6673 31.0417 87.6465 31.4856C87.6365 31.6963 87.7571 31.9023 87.8568 32.0725C88.0371 32.3812 88.1796 32.6247 87.9157 32.9048C87.643 33.1945 87.3868 33.0752 87.0717 32.9292C86.8249 32.814 86.4908 32.6736 86.2648 32.916C86.0532 33.1426 86.0488 33.6107 86.2678 33.8349C86.4942 34.0682 86.829 33.9273 87.0717 33.8147C87.3868 33.6679 87.643 33.5489 87.9157 33.8384C88.1796 34.1185 88.0371 34.3619 87.8568 34.6707C87.7571 34.841 87.6365 35.0472 87.6465 35.2577C87.7087 36.5725 89.8993 36.1931 88.9932 34.6681C88.7988 34.3397 88.7042 33.9041 89.0932 33.671C89.2179 33.5968 89.5051 33.5578 89.712 33.5575V34.1342Z" fill="#FFD903"/>
</g>
<defs>
<clipPath id="clip0_283_524">
<rect width="189.173" height="38.6944" fill="white" transform="translate(0.286865 0.172363)"/>
</clipPath>
</defs>
</svg>
